<svg xmlns="http://www.w3.org/2000/svg" viewBox="0 0 600 210" role="img" aria-label="SHAP summary: for each factor, dots show how much each policy's value pushed predicted loss up or down" fill="none" stroke="currentColor" stroke-width="1.25" stroke-linecap="round" stroke-linejoin="round">
<path class="soft" d="M330 18V160"/>
<text class="fig-label" x="150" y="44" text-anchor="end">claim frequency</text>
<circle class="fill" cx="366.4" cy="38.1" r="3.1"/>
<circle  cx="278.0" cy="42.5" r="3.1"/>
<circle class="fill" cx="411.9" cy="41.1" r="3.1"/>
<circle class="fill" cx="464.6" cy="43.0" r="3.1"/>
<circle  cx="174.3" cy="37.2" r="3.1"/>
<circle  cx="311.2" cy="36.1" r="3.1"/>
<circle class="fill" cx="356.1" cy="50.3" r="3.1"/>
<circle class="fill" cx="416.9" cy="35.6" r="3.1"/>
<circle  cx="310.7" cy="41.5" r="3.1"/>
<circle  cx="247.1" cy="47.3" r="3.1"/>
<circle class="fill" cx="394.9" cy="31.1" r="3.1"/>
<circle class="fill" cx="396.5" cy="38.1" r="3.1"/>
<circle  cx="279.5" cy="39.6" r="3.1"/>
<circle class="fill" cx="457.8" cy="45.7" r="3.1"/>
<circle class="fill" cx="438.5" cy="32.2" r="3.1"/>
<circle  cx="262.9" cy="32.4" r="3.1"/>
<circle  cx="268.7" cy="27.8" r="3.1"/>
<circle class="fill" cx="456.5" cy="43.5" r="3.1"/>
<circle  cx="185.9" cy="35.6" r="3.1"/>
<circle class="fill" cx="452.3" cy="40.9" r="3.1"/>
<circle class="fill" cx="387.5" cy="43.7" r="3.1"/>
<circle class="fill" cx="360.2" cy="47.7" r="3.1"/>
<circle class="fill" cx="380.8" cy="36.2" r="3.1"/>
<circle  cx="195.1" cy="46.1" r="3.1"/>
<circle class="fill" cx="472.7" cy="39.1" r="3.1"/>
<circle class="fill" cx="381.8" cy="46.9" r="3.1"/>
<circle  cx="290.4" cy="40.2" r="3.1"/>
<circle class="fill" cx="444.1" cy="37.3" r="3.1"/>
<circle  cx="227.6" cy="38.2" r="3.1"/>
<circle  cx="226.3" cy="32.4" r="3.1"/>
<circle class="fill" cx="417.7" cy="45.2" r="3.1"/>
<circle class="fill" cx="360.9" cy="43.5" r="3.1"/>
<circle class="fill" cx="364.9" cy="40.0" r="3.1"/>
<circle class="fill" cx="425.4" cy="41.9" r="3.1"/>
<text class="fig-label" x="150" y="90" text-anchor="end">policy tenure</text>
<circle  cx="353.4" cy="91.5" r="3.1"/>
<circle class="fill" cx="334.1" cy="70.6" r="3.1"/>
<circle class="fill" cx="285.8" cy="87.4" r="3.1"/>
<circle class="fill" cx="301.3" cy="82.9" r="3.1"/>
<circle class="fill" cx="236.1" cy="85.4" r="3.1"/>
<circle  cx="305.9" cy="83.1" r="3.1"/>
<circle  cx="395.4" cy="91.7" r="3.1"/>
<circle class="fill" cx="234.0" cy="83.9" r="3.1"/>
<circle class="fill" cx="315.9" cy="69.9" r="3.1"/>
<circle  cx="414.4" cy="77.0" r="3.1"/>
<circle class="fill" cx="275.5" cy="87.1" r="3.1"/>
<circle class="fill" cx="295.0" cy="95.2" r="3.1"/>
<circle  cx="415.3" cy="79.1" r="3.1"/>
<circle  cx="372.3" cy="90.2" r="3.1"/>
<circle class="fill" cx="280.7" cy="76.9" r="3.1"/>
<circle  cx="365.0" cy="77.2" r="3.1"/>
<circle class="fill" cx="287.1" cy="80.4" r="3.1"/>
<circle  cx="390.0" cy="95.5" r="3.1"/>
<circle class="fill" cx="269.4" cy="84.9" r="3.1"/>
<circle class="fill" cx="242.8" cy="82.4" r="3.1"/>
<circle class="fill" cx="327.2" cy="79.9" r="3.1"/>
<circle class="fill" cx="273.9" cy="84.9" r="3.1"/>
<circle class="fill" cx="276.8" cy="86.7" r="3.1"/>
<circle  cx="360.5" cy="83.7" r="3.1"/>
<circle class="fill" cx="254.4" cy="82.3" r="3.1"/>
<circle class="fill" cx="296.3" cy="94.0" r="3.1"/>
<circle class="fill" cx="306.2" cy="95.7" r="3.1"/>
<circle class="fill" cx="256.0" cy="79.5" r="3.1"/>
<circle class="fill" cx="229.2" cy="85.9" r="3.1"/>
<circle  cx="335.2" cy="87.4" r="3.1"/>
<circle class="fill" cx="263.1" cy="92.0" r="3.1"/>
<circle  cx="377.6" cy="92.4" r="3.1"/>
<circle  cx="417.3" cy="90.8" r="3.1"/>
<circle class="fill" cx="298.7" cy="78.9" r="3.1"/>
<text class="fig-label" x="150" y="136" text-anchor="end">region</text>
<circle  cx="289.5" cy="128.6" r="3.1"/>
<circle  cx="270.0" cy="131.3" r="3.1"/>
<circle class="fill" cx="337.2" cy="134.0" r="3.1"/>
<circle  cx="279.9" cy="130.3" r="3.1"/>
<circle  cx="269.9" cy="129.2" r="3.1"/>
<circle class="fill" cx="374.2" cy="134.0" r="3.1"/>
<circle class="fill" cx="384.5" cy="119.5" r="3.1"/>
<circle class="fill" cx="376.7" cy="129.2" r="3.1"/>
<circle  cx="271.0" cy="146.5" r="3.1"/>
<circle class="fill" cx="393.9" cy="131.3" r="3.1"/>
<circle class="fill" cx="351.6" cy="131.5" r="3.1"/>
<circle class="fill" cx="357.2" cy="130.8" r="3.1"/>
<circle  cx="307.7" cy="132.6" r="3.1"/>
<circle  cx="328.4" cy="138.8" r="3.1"/>
<circle  cx="272.9" cy="134.9" r="3.1"/>
<circle class="fill" cx="383.6" cy="135.1" r="3.1"/>
<circle class="fill" cx="396.9" cy="127.8" r="3.1"/>
<circle class="fill" cx="373.1" cy="128.0" r="3.1"/>
<circle class="fill" cx="336.8" cy="126.2" r="3.1"/>
<circle class="fill" cx="377.2" cy="123.9" r="3.1"/>
<circle class="fill" cx="414.6" cy="136.9" r="3.1"/>
<circle class="fill" cx="328.6" cy="127.5" r="3.1"/>
<circle class="fill" cx="336.4" cy="131.3" r="3.1"/>
<circle class="fill" cx="357.4" cy="133.3" r="3.1"/>
<circle class="fill" cx="357.5" cy="127.0" r="3.1"/>
<circle  cx="309.1" cy="132.9" r="3.1"/>
<circle class="fill" cx="338.0" cy="124.4" r="3.1"/>
<circle class="fill" cx="372.9" cy="130.9" r="3.1"/>
<circle  cx="269.2" cy="132.4" r="3.1"/>
<circle class="fill" cx="353.5" cy="116.2" r="3.1"/>
<circle class="fill" cx="382.3" cy="123.8" r="3.1"/>
<circle class="fill" cx="366.3" cy="133.1" r="3.1"/>
<circle class="fill" cx="382.0" cy="135.6" r="3.1"/>
<circle class="fill" cx="402.5" cy="125.5" r="3.1"/>
<path d="M318 182L210 182"/><path d="M216.3 179.0L210 182L216.3 185.0"/>
<path d="M342 182L450 182"/><path d="M443.7 185.0L450 182L443.7 179.0"/>
<text class="fig-note" x="202" y="186" text-anchor="end">lowers predicted loss</text>
<text class="fig-note" x="458" y="186" text-anchor="start">raises it</text>
<circle class="fill" cx="486" cy="30" r="3.1"/><text class="fig-note" x="496" y="34" text-anchor="start">high value</text>
<circle cx="486" cy="50" r="3.1"/><text class="fig-note" x="496" y="54" text-anchor="start">low value</text>
</svg>